<?xml version="1.0" encoding="iso-8859-1"?>
<!-- Generator: Adobe Illustrator 19.0.0, SVG Export Plug-In . SVG Version: 6.00 Build 0)  -->
<svg version="1.1" id="Layer_1" xmlns="http://www.w3.org/2000/svg" xmlns:xlink="http://www.w3.org/1999/xlink" x="0px" y="0px"
	 viewBox="0 0 512 512" style="enable-background:new 0 0 512 512;" xml:space="preserve">
<g>
	<g>
		<g>
			<path d="M440.742,332.536c-16.008,0-29.031,13.023-29.031,29.031s13.023,29.031,29.031,29.031s29.031-13.023,29.031-29.031
				S456.75,332.536,440.742,332.536z M440.742,374.763c-7.277,0-13.196-5.919-13.196-13.196s5.919-13.196,13.196-13.196
				c7.277,0,13.196,5.919,13.196,13.196S448.019,374.763,440.742,374.763z"/>
			<path d="M192.66,364.206c-7.277,0-13.196,5.919-13.196,13.196s5.919,13.196,13.196,13.196s13.196-5.919,13.196-13.196
				S199.937,364.206,192.66,364.206z"/>
			<path d="M504.083,416.99h-18.621C501.633,403.916,512,383.935,512,361.567c0-19.881-8.193-37.878-21.37-50.817
				c0.162-0.63,0.257-1.287,0.257-1.967V256c0-4.373-3.545-7.918-7.917-7.918h-14.932l-27.711-110.845h0.417
				c0.007-0.001,0.014-0.001,0.021,0c4.373,0,7.918-3.545,7.918-7.918c0-0.214-0.008-0.425-0.025-0.634
				c-0.342-27.358-22.703-49.51-50.14-49.51H292.948c-4.373,0-7.918,3.545-7.918,7.918v42.227c0,4.373,3.545,7.918,7.918,7.918
				h2.639v79.243c-20.984,0.353-40.519,2.106-58.062,5.051v-39.428c0-3.408-2.181-6.433-5.413-7.511l-31.67-10.557
				c-2.412-0.803-5.068-0.399-7.133,1.088c-2.065,1.488-3.288,3.879-3.288,6.424v62.745c-26.559,10.73-42.228,25.622-42.228,42.822
				v44.865h-16.164v-13.196c0-4.373-3.545-7.918-7.918-7.918H76.206c-30.561,0-55.423,24.862-55.423,55.423v39.588H7.918
				c-4.373,0-7.918,3.545-7.918,7.918c0,4.373,3.545,7.918,7.918,7.918h20.454c0.056,0,0.11-0.007,0.165-0.008
				c0.056,0.001,0.11,0.008,0.165,0.008h47.505c30.561,0,55.423-24.862,55.423-55.423v-18.474h16.164v2.639
				c0,1.224,0.286,2.377,0.781,3.412c-7.106,9.318-11.337,20.94-11.337,33.537c0,15.497,6.401,29.52,16.688,39.588h-8.771
				c-4.373,0-7.918,3.545-7.918,7.918c0,4.373,3.545,7.918,7.918,7.918h358.928c4.373,0,7.917-3.545,7.917-7.918
				C512,420.535,508.455,416.99,504.083,416.99z M115.794,356.289c0,21.829-17.76,39.588-39.588,39.588H36.619v-39.588
				c0-21.829,17.758-39.588,39.588-39.588h39.588V356.289z M475.052,263.918v35.218c-10.185-5.619-21.878-8.826-34.309-8.826
				c-22.538,0-42.65,10.529-55.717,26.913c-0.927-3.343-3.984-5.8-7.623-5.8h-31.242l15.835-47.505H475.052z M451.716,248.082
				h-95.427c-3.408,0-6.433,2.181-7.511,5.414l-19.309,57.927h-18.046V137.237h112.582L451.716,248.082z M300.866,95.01h97.65
				c16.194,0,29.804,11.278,33.387,26.392H300.866V95.01z M369.485,327.258v47.505H248.082v-47.505H369.485z M205.856,182.532
				l15.835,5.278v36.52c0,0.102,0.012,0.202,0.016,0.304c-5.54,1.251-10.833,2.632-15.851,4.136V182.532z M163.628,277.113
				c0-10.323,13.833-21.492,37.004-29.879c24.915-9.016,58.391-14.25,94.955-14.911v36.872h-87.093
				c-4.373,0-7.918,3.545-7.918,7.918c0,4.373,3.545,7.918,7.918,7.918h87.093v26.392h-55.423c-4.373,0-7.918,3.545-7.918,7.918
				v2.639h-68.62V277.113z M192.66,416.99c-21.829,0-39.588-17.758-39.588-39.588s17.759-39.588,39.588-39.588
				c21.829,0,39.588,17.758,39.588,39.588S214.489,416.99,192.66,416.99z M231.394,416.99c7.268-7.113,12.589-16.202,15.088-26.392
				h129.209c4.627,10.328,11.635,19.36,20.332,26.392H231.394z M440.742,416.99c-30.561,0-55.423-24.862-55.423-55.423
				s24.862-55.423,55.423-55.423c30.561,0,55.423,24.862,55.423,55.423S471.303,416.99,440.742,416.99z"/>
		</g>
	</g>
</g>
<g>
</g>
<g>
</g>
<g>
</g>
<g>
</g>
<g>
</g>
<g>
</g>
<g>
</g>
<g>
</g>
<g>
</g>
<g>
</g>
<g>
</g>
<g>
</g>
<g>
</g>
<g>
</g>
<g>
</g>
</svg>
