<?xml version="1.0" encoding="iso-8859-1"?>
<!-- Generator: Adobe Illustrator 16.0.0, SVG Export Plug-In . SVG Version: 6.00 Build 0)  -->
<!DOCTYPE svg PUBLIC "-//W3C//DTD SVG 1.1//EN" "http://www.w3.org/Graphics/SVG/1.1/DTD/svg11.dtd">
<svg version="1.1" id="Capa_1" xmlns="http://www.w3.org/2000/svg" xmlns:xlink="http://www.w3.org/1999/xlink" x="0px" y="0px"
	 width="490.348px" height="490.348px" viewBox="0 0 490.348 490.348" style="enable-background:new 0 0 490.348 490.348;"
	 xml:space="preserve">
<g>
	<path d="M435.362,337.81L404.6,267.017v-84.843h-40v75.824l-10.873-10.26v-29.624H248.083L134.673,84.489H46.277l-24.484,34.023
		h24.484v99.602H10.111v90.204C3.724,318.199,0,329.954,0,342.568c0,34.897,28.392,63.29,63.29,63.29
		c0.885,0,115.987-0.057,115.987-0.057c0.877,0.037,1.758,0.057,2.643,0.057c0.887,0,1.77-0.02,2.648-0.057h119.851v-0.039
		c29.085-1.559,53.014-22.844,58.619-50.682h36.216l3.504,8.063l14.09,11.571l73.5,16l-18.26-40.635L435.362,337.81z M80.3,118.512
		h38.624l84.534,99.602H80.3V118.512z M65.033,371.827l-1.801,0.006c-16.112-0.031-29.21-13.146-29.21-29.266
		c0-16.139,13.129-29.266,29.267-29.266c16.138,0,29.266,13.127,29.266,29.266C92.555,358.12,80.361,370.923,65.033,371.827z
		 M183.663,371.777h-3.489c-15.328-0.905-27.521-13.658-27.521-29.21c0-16.139,13.129-29.266,29.267-29.266
		c16.138,0,29.266,13.127,29.266,29.266C211.185,358.12,198.991,370.872,183.663,371.777z M245.149,312.841h-7.383
		c-10.663-19.951-31.69-33.562-55.846-33.562c-24.156,0-45.181,13.612-55.842,33.562h-6.946
		c-10.662-19.949-31.686-33.562-55.842-33.562c-6.676,0-13.11,1.047-19.156,2.972v-30.113h275.571v29.967
		c-5.915-1.834-12.199-2.825-18.71-2.825C276.837,279.278,255.811,292.89,245.149,312.841z M302.738,371.777h-3.489
		c-15.328-0.905-27.521-13.658-27.521-29.21c0-16.139,13.129-29.266,29.267-29.266s29.266,13.127,29.266,29.266
		C330.26,358.12,318.066,370.872,302.738,371.777z"/>
</g>
<g>
</g>
<g>
</g>
<g>
</g>
<g>
</g>
<g>
</g>
<g>
</g>
<g>
</g>
<g>
</g>
<g>
</g>
<g>
</g>
<g>
</g>
<g>
</g>
<g>
</g>
<g>
</g>
<g>
</g>
</svg>
